<?xml version="1.0" encoding="UTF-8" standalone="no"?>
<!-- Generator: Adobe Illustrator 16.0.0, SVG Export Plug-In . SVG Version: 6.00 Build 0)  -->

<svg
   xmlns:dc="http://purl.org/dc/elements/1.1/"
   xmlns:cc="http://creativecommons.org/ns#"
   xmlns:rdf="http://www.w3.org/1999/02/22-rdf-syntax-ns#"
   xmlns:svg="http://www.w3.org/2000/svg"
   xmlns="http://www.w3.org/2000/svg"
   xmlns:sodipodi="http://sodipodi.sourceforge.net/DTD/sodipodi-0.dtd"
   xmlns:inkscape="http://www.inkscape.org/namespaces/inkscape"
   version="1.1"
   id="Capa_1"
   x="0px"
   y="0px"
   width="979.494px"
   height="979.494px"
   viewBox="0 0 979.494 979.494"
   style="enable-background:new 0 0 979.494 979.494;"
   xml:space="preserve"
   inkscape:version="0.91 r13725"
   sodipodi:docname="heart.svg"><metadata
     id="metadata43"><rdf:RDF><cc:Work
         rdf:about=""><dc:format>image/svg+xml</dc:format><dc:type
           rdf:resource="http://purl.org/dc/dcmitype/StillImage" /></cc:Work></rdf:RDF></metadata><defs
     id="defs41" /><sodipodi:namedview
     pagecolor="#ffffff"
     bordercolor="#666666"
     borderopacity="1"
     objecttolerance="10"
     gridtolerance="10"
     guidetolerance="10"
     inkscape:pageopacity="0"
     inkscape:pageshadow="2"
     inkscape:window-width="1366"
     inkscape:window-height="744"
     id="namedview39"
     showgrid="false"
     inkscape:zoom="0.24094073"
     inkscape:cx="489.74701"
     inkscape:cy="489.74701"
     inkscape:window-x="0"
     inkscape:window-y="0"
     inkscape:window-maximized="1"
     inkscape:current-layer="Capa_1" /><g
     id="g3"><g
       id="g5"><path
         d="M964.616,227.519c-15.63-44.595-43.082-84.824-79.389-116.338c-36.341-31.543-80.051-53.048-126.404-62.188    c-17.464-3.444-35.421-5.19-53.371-5.19c-52.371,0-103.306,14.809-147.296,42.827c-26.482,16.867-49.745,38.022-68.908,62.484    c-19.158-24.415-42.405-45.53-68.859-62.364C376.42,58.773,325.52,43.985,273.189,43.985c-0.003,0,0.001,0-0.001,0    c-43.604,0-87.367,10.77-126.546,31.143c-39.15,20.358-73.104,49.978-98.188,85.658C22.752,197.343,7.096,238.278,1.92,282.453    c-4.532,38.687-1.032,80.217,10.405,123.436c22.656,85.615,72.803,163.707,110.882,214.142    c82.795,109.659,196.636,209.196,348.028,304.301l18.085,11.36l18.086-11.36C693.624,807.35,823.602,683.842,904.764,546.749    c46.678-78.844,70.994-149.084,74.343-214.733C980.972,295.429,976.096,260.271,964.616,227.519z M489.322,855.248    c-135.253-87.096-237.398-177.586-311.846-276.192c-34.407-45.571-79.583-115.623-99.414-190.562    c-9.245-34.937-12.14-67.951-8.604-98.128c3.846-32.824,15.494-63.262,34.623-90.47c18.844-26.803,44.41-49.085,73.932-64.436    c29.533-15.357,62.444-23.474,95.176-23.474c39.377,0,77.654,11.113,110.692,32.136c32.204,20.492,58.094,49.399,74.868,83.596    l30.559,62.292l30.505-62.318c16.759-34.238,42.648-63.183,74.872-83.705c33.057-21.054,71.358-32.182,110.767-32.182    c13.544,0,27.074,1.314,40.216,3.905c34.739,6.85,67.585,23.042,94.986,46.826c27.39,23.774,48.064,54.023,59.79,87.476    c8.547,24.385,12.164,50.811,10.75,78.542c-2.772,54.379-24.017,114.42-64.944,183.553    C773.338,635.262,656.457,747.659,489.322,855.248z"
         id="path7" /></g></g><g
     id="g9" /><g
     id="g11" /><g
     id="g13" /><g
     id="g15" /><g
     id="g17" /><g
     id="g19" /><g
     id="g21" /><g
     id="g23" /><g
     id="g25" /><g
     id="g27" /><g
     id="g29" /><g
     id="g31" /><g
     id="g33" /><g
     id="g35" /><g
     id="g37" /><path
     style="fill:#ffcd02;fill-opacity:1"
     d="M 435.06012,897.86606 C 266.09593,785.04399 148.58596,669.36845 74.719821,543.15097 -24.102383,374.29028 -21.52546,230.72868 82.189459,127.01376 108.54964,100.65359 123.40306,89.674512 151.0745,76.096627 256.73592,24.250437 374.3185,41.504693 459.57411,121.36636 l 29.69631,27.81749 29.82381,-27.85215 C 628.88036,18.803577 790.36879,21.325823 896.26558,127.22265 1017.6281,248.58515 1001.2964,421.77585 849.37866,624.43897 777.30047,720.59354 639.22394,840.8346 507.70138,921.98149 l -18.98417,11.71288 -53.65709,-35.82831 z M 539.52822,824.2089 C 667.54713,734.82417 760.31638,644.85429 825.7719,546.60274 916.88098,409.84411 935.85353,299.18089 883.50526,209.85535 870.20768,187.16471 836.31851,153.71647 812.46011,139.7345 739.45137,96.948525 648.90063,101.29403 582.71593,150.75987 c -30.13766,22.52461 -47.47304,44.54412 -72.92839,92.63411 L 488.73913,283.15844 469.1849,243.76843 C 419.36663,143.41452 330.21199,94.421588 234.08247,114.57318 132.17596,135.93579 68.066533,214.12266 68.066533,317.04363 c 0,49.69764 11.51201,93.8455 39.298217,150.70627 62.34566,127.58208 172.35245,245.53342 332.16244,356.15079 25.10991,17.38058 47.6982,31.6709 50.19625,31.75627 2.498,0.0855 24.91015,-14.06628 49.80478,-31.44806 z"
     id="path3371"
     inkscape:connector-curvature="0" /></svg>